<svg width="246" height="67" viewBox="0 0 246 67" fill="none" xmlns="http://www.w3.org/2000/svg">
<path d="M152.149 32.272L147.246 23.975L137.602 7.54271L133.184 0.0538765L127.743 6.73456L124.888 10.2365L116.267 20.7963C114.813 22.682 112.55 23.9212 109.964 23.9212C105.6 23.9212 102.044 20.3653 102.044 16.0013C102.044 11.6373 105.492 8.08147 109.91 8.08147C114.328 8.08147 117.83 11.6373 117.83 16.0013C117.83 16.4323 117.776 16.8095 117.722 17.2405L124.349 9.159C121.763 3.77135 116.267 0 109.856 0C101.02 0 93.8008 7.16557 93.8008 16.0552C93.8008 24.8909 101.02 32.272 109.856 32.272C114.974 32.272 119.554 29.7937 122.463 25.9685L132.053 14.2234L137.764 23.975L137.872 24.1905H125.103C125.103 24.1905 125.103 24.2444 125.157 24.2983C125.48 25.2681 127.043 31.7871 135.447 32.272H144.014H152.149V32.272Z" fill="white"/>
<path d="M19.1793 49.6198C19.1793 51.0206 18.9638 52.3136 18.5867 53.4989C18.1556 54.6842 17.563 55.654 16.8087 56.516C16.0545 57.3241 15.0847 57.9706 14.0072 58.4555C12.9296 58.8865 11.6905 59.1559 10.3974 59.1559C9.1044 59.1559 7.86524 58.9404 6.78771 58.4555C5.71018 58.0245 4.79428 57.378 3.98613 56.516C3.23186 55.7078 2.58534 54.6842 2.15433 53.4989C1.72332 52.3136 1.50781 51.0206 1.50781 49.6198C1.50781 48.219 1.72332 46.926 2.15433 45.7407C2.58534 44.5554 3.23186 43.5856 3.98613 42.7775C4.79428 41.9693 5.71018 41.3228 6.78771 40.8918C7.86524 40.4608 9.05052 40.1914 10.3436 40.1914C11.6366 40.1914 12.8219 40.4069 13.8994 40.8918C14.9769 41.3228 15.8928 41.9693 16.701 42.7775C17.4553 43.5856 18.1018 44.6093 18.5328 45.7407C18.9638 46.926 19.1793 48.1651 19.1793 49.6198ZM14.0072 49.6198C14.0072 48.0574 13.6839 46.8182 13.0913 45.9023C12.4447 44.9864 11.5827 44.5554 10.3974 44.5554C9.21215 44.5554 8.35013 44.9864 7.70361 45.9023C7.05709 46.8182 6.73383 48.0574 6.73383 49.6198C6.73383 51.1822 7.05709 52.4214 7.70361 53.3373C8.35013 54.2532 9.21215 54.7381 10.3974 54.7381C11.5827 54.7381 12.4447 54.2532 13.0913 53.3373C13.6839 52.4214 14.0072 51.1822 14.0072 49.6198Z" fill="white"/>
<path d="M22.25 49.619C22.25 48.3259 22.4655 47.0868 22.8965 45.9554C23.3275 44.824 23.9202 43.8003 24.7283 42.9383C25.5365 42.0763 26.5062 41.4298 27.6376 40.891C28.7691 40.4061 30.0621 40.1367 31.5168 40.1367C32.4865 40.1367 33.3486 40.2445 34.1567 40.4061C34.9649 40.5677 35.7191 40.8371 36.4734 41.1604L35.3959 45.2011C34.911 45.0395 34.3722 44.8778 33.8334 44.7162C33.2408 44.5546 32.6482 44.5007 31.9478 44.5007C30.4392 44.5007 29.3078 44.9856 28.6074 45.9015C27.8532 46.8174 27.476 48.0566 27.476 49.5651C27.476 51.1814 27.7993 52.4206 28.4997 53.3365C29.2001 54.1985 30.3853 54.6834 32.1094 54.6834C32.702 54.6834 33.4024 54.6295 34.1028 54.5217C34.8032 54.414 35.4497 54.2524 36.0424 53.983L36.7428 58.1315C36.1501 58.4008 35.3959 58.6164 34.5338 58.778C33.6718 58.9396 32.6482 59.0474 31.6245 59.0474C30.0082 59.0474 28.5535 58.778 27.3683 58.2931C26.183 57.8082 25.2132 57.1617 24.4589 56.2997C23.7047 55.4376 23.1659 54.4679 22.7888 53.3365C22.4116 52.2051 22.25 50.9659 22.25 49.619Z" fill="white"/>
<path d="M38.4688 49.7814C38.4688 48.1651 38.7381 46.8182 39.223 45.5791C39.7079 44.3938 40.3544 43.3701 41.1626 42.6158C41.9707 41.8077 42.8866 41.2151 43.9103 40.784C44.9339 40.353 46.0115 40.1914 47.089 40.1914C49.6212 40.1914 51.6685 40.9457 53.1232 42.5081C54.5778 44.0705 55.3321 46.3333 55.3321 49.4043C55.3321 49.6737 55.3321 50.0508 55.2782 50.3741C55.2782 50.7512 55.2243 51.0206 55.2243 51.29H43.6948C43.8025 52.3136 44.2874 53.1756 45.1494 53.7683C46.0115 54.3609 47.1967 54.6842 48.6514 54.6842C49.5673 54.6842 50.4832 54.5764 51.3991 54.4148C52.315 54.2532 53.0154 54.0377 53.608 53.7683L54.3084 57.9168C54.0391 58.0784 53.6619 58.1862 53.2309 58.3478C52.7999 58.5094 52.2611 58.6172 51.7224 58.7249C51.1836 58.8327 50.591 58.8865 49.9444 58.9943C49.2979 59.0482 48.6514 59.1021 48.0588 59.1021C46.4425 59.1021 45.0417 58.8865 43.8564 58.4017C42.6711 57.9168 41.6475 57.2703 40.8932 56.4621C40.1389 55.654 39.5463 54.6303 39.1691 53.4989C38.6304 52.3136 38.4688 51.0745 38.4688 49.7814ZM50.3755 47.8419C50.3755 47.4109 50.2677 46.9798 50.1599 46.6027C50.0522 46.1717 49.8367 45.8484 49.5673 45.5252C49.2979 45.2019 48.9747 44.9325 48.5975 44.717C48.2204 44.5015 47.6816 44.3938 47.089 44.3938C46.4963 44.3938 46.0115 44.5015 45.6343 44.6632C45.2033 44.8787 44.8801 45.0942 44.6107 45.4174C44.3413 45.7407 44.1258 46.1178 43.9641 46.5488C43.8025 46.9798 43.6948 47.4109 43.6409 47.8419H50.3755V47.8419Z" fill="white"/>
<path d="M65.6755 40.1914C67.1841 40.1914 68.4232 40.353 69.4469 40.7302C70.4705 41.0534 71.2248 41.5383 71.8713 42.1848C72.464 42.8314 72.895 43.5856 73.1644 44.5015C73.4337 45.4174 73.5415 46.4411 73.5415 47.5186V58.0784C72.7872 58.24 71.8174 58.4017 70.5244 58.6172C69.2314 58.8327 67.6689 58.9404 65.8371 58.9404C64.6519 58.9404 63.6282 58.8327 62.6584 58.6172C61.6887 58.4017 60.8805 58.0784 60.234 57.5935C59.5336 57.1086 59.0487 56.516 58.6716 55.7617C58.2944 55.0074 58.1328 54.0915 58.1328 53.014C58.1328 51.9904 58.3483 51.0745 58.7793 50.3741C59.2103 49.6198 59.7491 49.081 60.4495 48.65C61.1499 48.219 61.958 47.8957 62.8739 47.7341C63.7898 47.5186 64.7057 47.4647 65.7294 47.4647C66.3759 47.4647 66.9686 47.5186 67.5073 47.5725C67.9922 47.6264 68.4232 47.6802 68.7465 47.788V47.3031C68.7465 46.4411 68.4771 45.7407 67.9383 45.2019C67.3996 44.6632 66.4837 44.3938 65.1906 44.3938C64.3286 44.3938 63.4666 44.4476 62.6584 44.5554C61.7964 44.6632 61.096 44.8787 60.4495 45.0942L59.803 40.9996C60.0724 40.8918 60.4495 40.8379 60.9344 40.7302C61.3654 40.6224 61.8503 40.5147 62.3891 40.4608C62.9278 40.4069 63.4666 40.2992 64.0592 40.2453C64.4902 40.1914 65.0829 40.1914 65.6755 40.1914ZM66.1065 55.0613C66.5914 55.0613 67.0763 55.0613 67.5612 55.0074C67.9922 55.0074 68.3693 54.9536 68.6387 54.8997V51.0206C68.4232 50.9667 68.1538 50.9128 67.7228 50.859C67.2918 50.8051 66.9147 50.8051 66.5914 50.8051C66.1065 50.8051 65.6755 50.859 65.2445 50.9128C64.8135 50.9667 64.4364 51.0745 64.1131 51.2361C63.7898 51.3977 63.5205 51.6132 63.3588 51.8826C63.1972 52.152 63.0894 52.4752 63.0894 52.9063C63.0894 53.7144 63.3588 54.2532 63.8976 54.5764C64.4364 54.8997 65.1368 55.0613 66.1065 55.0613Z" fill="white"/>
<path d="M78.0664 41.2697C78.9284 41.0004 80.0598 40.7849 81.4068 40.5694C82.7537 40.3538 84.2083 40.2461 85.7169 40.2461C87.2254 40.2461 88.5184 40.4616 89.5421 40.8387C90.5658 41.2159 91.3739 41.8085 91.9665 42.5089C92.5592 43.2632 92.9902 44.1252 93.2057 45.095C93.4751 46.1186 93.5828 47.1962 93.5828 48.4353V58.5641H88.5184V49.0818C88.5184 47.4655 88.3029 46.2803 87.8719 45.5799C87.4409 44.8795 86.6328 44.5562 85.4475 44.5562C85.0704 44.5562 84.6932 44.5562 84.2622 44.6101C83.8312 44.664 83.5079 44.664 83.1847 44.7178V58.5641H78.1203V41.2697H78.0664Z" fill="white"/>
<path d="M112.816 40.1914C114.325 40.1914 115.564 40.353 116.587 40.7302C117.611 41.0534 118.365 41.5383 119.012 42.1848C119.605 42.8314 120.036 43.5856 120.305 44.5015C120.574 45.4174 120.682 46.4411 120.682 47.5186V58.0784C119.928 58.24 118.958 58.4017 117.665 58.6172C116.372 58.8327 114.81 58.9404 112.978 58.9404C111.792 58.9404 110.769 58.8327 109.799 58.6172C108.829 58.4017 108.021 58.0784 107.375 57.5935C106.674 57.1086 106.189 56.516 105.812 55.7617C105.435 55.0074 105.273 54.0915 105.273 53.014C105.273 51.9904 105.489 51.0745 105.92 50.3741C106.351 49.6198 106.89 49.081 107.59 48.65C108.291 48.219 109.099 47.8957 110.015 47.7341C110.93 47.5186 111.846 47.4647 112.87 47.4647C113.517 47.4647 114.109 47.5186 114.648 47.5725C115.133 47.6264 115.564 47.6802 115.887 47.788V47.3031C115.887 46.4411 115.618 45.7407 115.079 45.2019C114.54 44.6632 113.624 44.3938 112.331 44.3938C111.469 44.3938 110.607 44.4476 109.799 44.5554C108.937 44.6632 108.237 44.8787 107.59 45.0942L106.944 40.9996C107.213 40.8918 107.59 40.8379 108.075 40.7302C108.506 40.6224 108.991 40.5147 109.53 40.4608C110.068 40.4069 110.607 40.2992 111.2 40.2453C111.631 40.1914 112.224 40.1914 112.816 40.1914ZM113.247 55.0613C113.732 55.0613 114.217 55.0613 114.702 55.0074C115.133 55.0074 115.51 54.9536 115.779 54.8997V51.0206C115.564 50.9667 115.294 50.9128 114.863 50.859C114.432 50.8051 114.055 50.8051 113.732 50.8051C113.247 50.8051 112.816 50.859 112.385 50.9128C111.954 50.9667 111.577 51.0745 111.254 51.2361C110.93 51.3977 110.661 51.6132 110.499 51.8826C110.338 52.152 110.23 52.4752 110.23 52.9063C110.23 53.7144 110.499 54.2532 111.038 54.5764C111.577 54.8997 112.277 55.0613 113.247 55.0613Z" fill="white"/>
<path d="M124.402 49.619C124.402 48.3259 124.618 47.0868 125.049 45.9554C125.48 44.824 126.073 43.8003 126.881 42.9383C127.689 42.0763 128.659 41.4298 129.79 40.891C130.921 40.4061 132.214 40.1367 133.669 40.1367C134.639 40.1367 135.501 40.2445 136.309 40.4061C137.117 40.5677 137.871 40.8371 138.626 41.1604L137.548 45.2011C137.063 45.0395 136.525 44.8778 135.986 44.7162C135.393 44.5546 134.801 44.5007 134.1 44.5007C132.592 44.5007 131.46 44.9856 130.76 45.9015C130.005 46.8174 129.628 48.0566 129.628 49.5651C129.628 51.1814 129.952 52.4206 130.652 53.3365C131.352 54.1985 132.538 54.6834 134.262 54.6834C134.854 54.6834 135.555 54.6295 136.255 54.5217C136.956 54.414 137.602 54.2524 138.195 53.983L138.895 58.1315C138.302 58.4008 137.548 58.6164 136.686 58.778C135.824 58.9396 134.801 59.0474 133.777 59.0474C132.161 59.0474 130.706 58.778 129.521 58.2931C128.335 57.8082 127.366 57.1617 126.611 56.2997C125.857 55.4376 125.318 54.4679 124.941 53.3365C124.564 52.2051 124.402 50.9659 124.402 49.619Z" fill="white"/>
<path d="M147.89 40.1914C149.399 40.1914 150.638 40.353 151.662 40.7302C152.685 41.1073 153.44 41.5383 154.086 42.1848C154.679 42.8314 155.11 43.5856 155.379 44.5015C155.649 45.4174 155.756 46.4411 155.756 47.5186V58.0784C155.002 58.24 154.032 58.4017 152.739 58.6172C151.446 58.8327 149.884 58.9404 148.052 58.9404C146.867 58.9404 145.843 58.8327 144.873 58.6172C143.904 58.4017 143.095 58.0784 142.449 57.5935C141.802 57.1086 141.264 56.516 140.886 55.7617C140.509 55.0074 140.348 54.0915 140.348 53.014C140.348 51.9904 140.563 51.0745 140.994 50.3741C141.425 49.6198 141.964 49.081 142.664 48.65C143.365 48.219 144.173 47.8957 145.089 47.7341C146.005 47.5186 146.921 47.4647 147.944 47.4647C148.591 47.4647 149.183 47.5186 149.722 47.5725C150.261 47.6264 150.638 47.6802 150.961 47.788V47.3031C150.961 46.4411 150.692 45.7407 150.153 45.2019C149.614 44.6632 148.699 44.3938 147.405 44.3938C146.543 44.3938 145.681 44.4476 144.873 44.5554C144.011 44.6632 143.311 44.8787 142.664 45.0942L142.018 40.9996C142.287 40.8918 142.664 40.8379 143.149 40.7302C143.58 40.6224 144.065 40.5147 144.604 40.4608C145.143 40.4069 145.681 40.2992 146.274 40.2453C146.705 40.1914 147.298 40.1914 147.89 40.1914ZM148.321 55.0613C148.806 55.0613 149.291 55.0613 149.776 55.0074C150.207 55.0074 150.584 54.9536 150.854 54.8997V51.0206C150.638 50.9667 150.315 50.9128 149.938 50.859C149.507 50.8051 149.13 50.8051 148.806 50.8051C148.321 50.8051 147.89 50.859 147.459 50.9128C147.028 50.9667 146.651 51.0745 146.328 51.2361C146.005 51.3977 145.735 51.6132 145.574 51.8826C145.412 52.152 145.304 52.4752 145.304 52.9063C145.304 53.7144 145.574 54.2532 146.112 54.5764C146.651 54.8997 147.352 55.0613 148.321 55.0613Z" fill="white"/>
<path d="M176.124 58.0248C175.693 58.1864 175.154 58.2942 174.561 58.4019C173.969 58.5097 173.376 58.6174 172.675 58.7252C171.975 58.8329 171.382 58.8868 170.682 58.9407C170.036 58.9945 169.389 59.0484 168.743 59.0484C167.288 59.0484 165.941 58.8329 164.81 58.4019C163.624 57.9709 162.654 57.3244 161.9 56.5162C161.092 55.7081 160.499 54.7383 160.068 53.6069C159.637 52.4755 159.422 51.1825 159.422 49.7278C159.422 48.2731 159.584 46.9801 159.961 45.7948C160.338 44.6095 160.823 43.6398 161.523 42.8316C162.223 42.0235 163.032 41.3769 164.055 40.9459C165.025 40.5149 166.156 40.2994 167.449 40.2994C168.15 40.2994 168.796 40.3533 169.335 40.5149C169.874 40.6765 170.467 40.8382 171.005 41.1076V32.9722L176.07 32.1641V58.0248H176.124ZM164.648 49.5123C164.648 51.0747 165.025 52.3677 165.725 53.2836C166.426 54.2534 167.503 54.7383 168.85 54.7383C169.281 54.7383 169.712 54.7383 170.089 54.6844C170.467 54.6306 170.79 54.6306 171.059 54.5767V45.3099C170.736 45.0944 170.305 44.9328 169.82 44.7712C169.281 44.6095 168.796 44.5557 168.258 44.5557C165.833 44.6095 164.648 46.2258 164.648 49.5123Z" fill="white"/>
<path d="M180.055 49.7814C180.055 48.1651 180.324 46.8182 180.809 45.5791C181.294 44.3938 181.94 43.3701 182.749 42.6158C183.557 41.8077 184.473 41.2151 185.496 40.784C186.52 40.353 187.597 40.1914 188.675 40.1914C191.207 40.1914 193.254 40.9457 194.709 42.5081C196.164 44.0705 196.918 46.3333 196.918 49.4043C196.918 49.6737 196.918 50.0508 196.864 50.3741C196.864 50.7512 196.81 51.0206 196.81 51.29H185.281C185.388 52.3136 185.873 53.1756 186.735 53.7683C187.597 54.3609 188.783 54.6842 190.237 54.6842C191.153 54.6842 192.069 54.5764 192.985 54.4148C193.901 54.2532 194.601 54.0377 195.194 53.7683L195.894 57.9168C195.625 58.0784 195.248 58.1862 194.817 58.3478C194.386 58.5094 193.847 58.6172 193.308 58.7249C192.77 58.8327 192.177 58.8865 191.53 58.9943C190.884 59.0482 190.237 59.1021 189.645 59.1021C188.028 59.1021 186.628 58.8865 185.442 58.4017C184.257 57.9168 183.233 57.2703 182.479 56.4621C181.725 55.654 181.132 54.6303 180.755 53.4989C180.378 52.3675 180.055 51.0745 180.055 49.7814ZM192.015 47.8419C192.015 47.4109 191.908 46.9798 191.8 46.6027C191.692 46.1717 191.476 45.8484 191.207 45.5252C190.938 45.2019 190.614 44.9325 190.237 44.717C189.86 44.5015 189.321 44.3938 188.729 44.3938C188.136 44.3938 187.651 44.5015 187.274 44.6632C186.843 44.8787 186.52 45.0942 186.25 45.4174C185.981 45.7407 185.766 46.1178 185.604 46.5488C185.442 46.9798 185.335 47.4109 185.281 47.8419H192.015V47.8419Z" fill="white"/>
<path d="M210.708 49.0818C210.708 47.4655 210.492 46.2803 210.061 45.5799C209.63 44.8795 208.93 44.5562 207.906 44.5562C207.583 44.5562 207.26 44.5562 206.937 44.6101C206.613 44.664 206.29 44.664 205.967 44.7178V58.5641H200.902V41.2697C201.333 41.162 201.818 41.0542 202.411 40.8926C203.004 40.7849 203.596 40.6771 204.243 40.5694C204.889 40.4616 205.536 40.4077 206.236 40.3538C206.937 40.3 207.583 40.2461 208.23 40.2461C209.523 40.2461 210.6 40.4077 211.408 40.731C212.216 41.0542 212.863 41.4314 213.402 41.9163C214.156 41.3775 214.964 41.0004 215.934 40.6771C216.904 40.4077 217.766 40.2461 218.52 40.2461C219.975 40.2461 221.106 40.4616 222.076 40.8387C222.992 41.2159 223.746 41.8085 224.285 42.5089C224.823 43.2632 225.201 44.1252 225.416 45.095C225.632 46.0648 225.739 47.1962 225.739 48.4353V58.5641H220.675V49.0818C220.675 47.4655 220.46 46.2803 220.028 45.5799C219.597 44.8795 218.897 44.5562 217.873 44.5562C217.604 44.5562 217.227 44.6101 216.742 44.7717C216.257 44.9333 215.826 45.095 215.557 45.3105C215.718 45.8492 215.826 46.388 215.88 46.9807C215.934 47.5733 215.934 48.1659 215.934 48.8663V58.6719H210.869V49.0818H210.708Z" fill="white"/>
<path d="M245.674 40.6769C244.651 44.125 243.573 47.3576 242.442 50.3747C241.31 53.3918 240.125 56.355 238.778 59.1566C238.293 60.1802 237.808 61.0422 237.323 61.7426C236.839 62.443 236.3 63.0357 235.761 63.5205C235.168 64.0054 234.522 64.3287 233.821 64.5442C233.121 64.7597 232.259 64.8675 231.289 64.8675C230.481 64.8675 229.781 64.8136 229.08 64.652C228.434 64.4903 227.841 64.3287 227.41 64.1671L228.272 60.1263C228.811 60.288 229.242 60.4496 229.673 60.5035C230.104 60.5573 230.535 60.6112 230.966 60.6112C231.882 60.6112 232.582 60.3418 233.067 59.8569C233.552 59.3721 233.983 58.6717 234.306 57.8096C233.121 55.5468 231.99 52.9608 230.804 50.1592C229.619 47.3037 228.542 44.125 227.518 40.623H232.906C233.121 41.4851 233.39 42.4548 233.714 43.5324C234.037 44.556 234.36 45.6336 234.683 46.6572C235.007 47.7347 235.384 48.7584 235.707 49.7282C236.084 50.7518 236.408 51.6138 236.731 52.4759C237 51.6677 237.323 50.7518 237.647 49.7282C237.97 48.7045 238.293 47.6809 238.563 46.6572C238.886 45.5797 239.155 44.556 239.478 43.5324C239.748 42.5087 240.017 41.5389 240.233 40.623H245.674V40.6769Z" fill="white"/>
</svg>
